<?xml version="1.0" encoding="utf-8"?>
<!-- Generator: Adobe Illustrator 19.2.0, SVG Export Plug-In . SVG Version: 6.00 Build 0)  -->
<svg version="1.1" baseProfile="tiny" id="Layer_1" xmlns="http://www.w3.org/2000/svg" xmlns:xlink="http://www.w3.org/1999/xlink"
	 x="0px" y="0px" viewBox="0 0 300 300" xml:space="preserve">
<g>
	<path d="M114,66.2c-2.6-10.1-13.4-10.1-19-5c-5.6,5.1-8.9,13.8-11.4,20.7c-1.1,2.9-1.7,6.1-1.9,10.1h-4.8c1.8-8,12-23.5,12-36.4
		c0-6.9-14.6-31.9-14.6-31.9S59.9,49,60,55.9C60,68.8,70,84,71.8,92h-4.6c-0.4-4-1.3-8-2.8-11.1c-3.1-6.7-7.1-14.9-13-19.5
		s-16.7-3.9-18.5,6.4c-1.7,10.1,3.9,13.8,4.1,14.3c-0.1-0.5-0.6-6.4,1.6-8.3c7.5-6.4,16.3-2.3,22.5,10.3c1.3,2.6,2,3.8,2.2,7.8h-2.1
		c-0.7,0-1.3,0.8-1.3,1.5c0,0.7,0.6,1.5,1.3,1.5h2.3c-0.3,9-8.2,16.2-8.2,16.2s9.4-5.8,11.2-9.3c0.7-1.4,1.1-3.9,0.9-6.9H72
		c0,0-0.1,0.1-0.1,0.4c-1.8,7.5-7.5,13.7-7.5,13.7l10,19.2l9.9-19.5c0,0-5.7-6-7.5-13.5c-0.1-0.3-0.1-0.5-0.1-0.5h5
		c0,3,0.6,6,1.5,7.6c2,3.3,8.7,8.1,8.7,8.1S84.6,104,85.1,95h2.5c0.7,0,1.3-0.8,1.3-1.5c0-0.7-0.6-1.5-1.3-1.5h-2.2
		c0.3-2,1-4.8,2-7.3c5.4-13,13.4-17.6,21.4-11.8c2.4,1.7,2.3,7.4,2.3,8C111.2,80.4,116.5,76.1,114,66.2z"/>
</g>
<g>
	<path d="M267,214.2c-2.6-10.1-13.4-10.1-19-5c-5.6,5.1-8.9,13.8-11.4,20.7c-1.1,2.9-1.7,6.1-1.9,10.1h-4.8c1.8-8,12-23.5,12-36.4
		c0-6.9-14.6-31.9-14.6-31.9S212.9,197,213,203.9C213,216.8,223,232,224.8,240h-4.6c-0.4-4-1.3-8-2.8-11.1
		c-3.1-6.7-7.1-14.9-13-19.5s-16.7-3.9-18.5,6.4c-1.7,10.1,3.9,13.8,4.1,14.3c-0.1-0.5-0.6-6.4,1.6-8.3c7.5-6.4,16.3-2.3,22.5,10.3
		c1.3,2.6,2,3.8,2.2,7.8h-2.1c-0.7,0-1.3,0.8-1.3,1.5c0,0.7,0.6,1.5,1.3,1.5h2.3c-0.3,9-8.2,16.2-8.2,16.2s9.4-5.8,11.2-9.3
		c0.7-1.4,1.1-3.9,0.9-6.9h4.6c0,0-0.1,0.1-0.1,0.4c-1.8,7.5-7.5,13.7-7.5,13.7l10,19.2l9.9-19.5c0,0-5.7-6-7.5-13.5
		c-0.1-0.3-0.1-0.5-0.1-0.5h5c0,3,0.6,6,1.5,7.6c2,3.3,8.7,8.1,8.7,8.1s-7.3-6.8-6.8-15.8h2.5c0.7,0,1.3-0.8,1.3-1.5
		c0-0.7-0.6-1.5-1.3-1.5h-2.2c0.3-2,1-4.8,2-7.3c5.4-13,13.4-17.6,21.4-11.8c2.4,1.7,2.3,7.4,2.3,8
		C264.2,228.4,269.5,224.1,267,214.2z"/>
</g>
</svg>
