<?xml version="1.0" encoding="utf-8"?>
<!-- Generator: Adobe Illustrator 22.0.1, SVG Export Plug-In . SVG Version: 6.00 Build 0)  -->
<svg version="1.1" id="Layer_1" xmlns="http://www.w3.org/2000/svg" xmlns:xlink="http://www.w3.org/1999/xlink" x="0px" y="0px"
	 viewBox="0 0 2518.8 4698.6" style="enable-background:new 0 0 2518.8 4698.6;" xml:space="preserve">
<style type="text/css">
	.st0{fill:#191919;}
</style>
<path class="st0" d="M37.9,3361.4c11.9,179.2,53.2,343.7,123.7,493.6c70.5,149.8,164.2,279.1,281.2,387.9s255.1,194.1,414.1,255.7
	s334.4,92.6,526.5,92.6c170.9,0,333.7-18.3,488.1-55c154.4-36.7,291.8-94.8,411.7-174.1s215.2-182.9,285.7-310.7
	c70.5-127.8,105.8-282.7,105.8-465c0-149.8-38.2-276.9-114.7-381.3c-76.5-104.2-177-193.9-301.4-268.9
	c-124.6-75-266.2-139.6-425.2-193.9s-320.9-106.4-485.9-156.5c-204.1-58.7-408.7-124-614.2-196.1
	c-205.6-71.8-390.8-164.4-555.7-277.5C12.5,1998.8-121,1858.6-222.9,1691C-325,1523.5-376,1314.8-376,1065.1
	c0-205.6,41.2-388.6,123.7-548.7S-53.5,222.6,96.5,115.3S425.7-73.5,634.3-129.3s437.3-83.7,686.2-83.7c332.9,0,609,47,827.9,141.1
	c218.9,94.1,395.2,213.7,528.7,359.2c133.5,145.4,230.2,306.3,290.3,482.6c59.9,176.3,94.5,345.3,103.4,506.8h-558
	c-15-167.4-55.4-314.3-121.4-440.7s-152.2-232.1-258.6-317.2c-106.6-85.2-229.5-149.8-369.1-193.9
	c-139.4-44.1-287.3-66.1-443.2-66.1c-144,0-285.1,14-423,41.8c-137.9,27.8-261,74.3-368.9,138.9s-195,147.6-261,249
	s-99,226.8-99,376.8c0,152.9,37.5,282.2,112.5,387.9c75.1,105.8,175.5,197.7,301.4,275.5c125.9,77.9,270.1,144.7,432.1,200.5
	c161.9,55.9,330,110.2,503.9,163.1c206.9,61.7,411.7,128.6,614.2,200.5c202.4,72.1,384.7,163.2,546.7,273.3
	c161.9,110.2,292.5,246.8,391.5,409.8c99,163.1,148.5,366.6,148.5,610.5c0,243.9-45.8,458.5-137.3,643.5
	c-91.4,185-218.9,339.4-382.4,462.8c-163.5,123.3-357.8,216.8-582.6,279.8c-225,63.2-469.4,94.8-733.4,94.8
	c-240,0-473.3-39.7-699.8-118.9c-226.5-79.3-428.2-192.5-605.2-339.4s-320.2-326.1-429.7-537.7c-109.5-211.5-167.2-448-173.3-709.6
	L37.9,3361.4L37.9,3361.4z"/>
</svg>
