<?xml version="1.0" encoding="utf-8"?>
<!-- Generator: Adobe Illustrator 22.0.1, SVG Export Plug-In . SVG Version: 6.00 Build 0)  -->
<svg version="1.1" id="Layer_1" xmlns="http://www.w3.org/2000/svg" xmlns:xlink="http://www.w3.org/1999/xlink" x="0px" y="0px"
	 viewBox="0 0 2318.2 2130.2" style="enable-background:new 0 0 2318.2 2130.2;" xml:space="preserve">
<style type="text/css">
	.st0{fill:#191919;}
</style>
<path class="st0" d="M278.1,1706.9c8,123.1,35.8,236.1,83.2,339c47.4,102.9,110.5,191.7,189.2,266.4
	c78.7,74.7,171.6,133.3,278.6,175.6s225,63.6,354.2,63.6c115,0,224.5-12.6,328.4-37.8c103.9-25.2,196.3-65.1,277-119.6
	c80.7-54.5,144.8-125.6,192.2-213.4c47.4-87.8,71.2-194.2,71.2-319.4c0-102.9-25.7-190.2-77.2-261.9
	c-51.5-71.6-119.1-133.2-202.8-184.7c-83.8-51.5-179.1-95.9-286.1-133.2c-107-37.3-215.9-73.1-326.9-107.5
	c-137.3-40.3-275-85.2-413.2-134.7C607.6,990,483,926.4,372,848.7c-111-77.7-200.8-174-269.4-289.1C33.9,444.5-0.4,301.2-0.4,129.7
	c0-141.2,27.7-266.9,83.2-376.9S216.6-449,317.5-522.7c100.9-73.7,221.5-129.7,361.8-168s294.2-57.5,461.7-57.5
	c224,0,409.7,32.3,557,96.9s265.9,146.8,355.7,246.7c89.8,99.9,154.9,210.4,195.3,331.5c40.3,121.1,63.6,237.2,69.6,348.1h-375.4
	c-10.1-115-37.3-215.9-81.7-302.7c-44.4-86.8-102.4-159.4-174-217.9c-71.7-58.5-154.4-102.9-248.3-133.2
	c-93.8-30.3-193.3-45.4-298.2-45.4c-96.9,0-191.8,9.6-284.6,28.7s-175.6,51-248.2,95.4s-131.2,101.4-175.6,171S366,26.7,366,129.7
	c0,105,25.2,193.8,75.7,266.4c50.5,72.7,118.1,135.8,202.8,189.2c84.7,53.5,181.7,99.4,290.7,137.7c108.9,38.4,222,75.7,339,112
	c139.2,42.4,277,88.3,413.2,137.7c136.2,49.5,258.8,112.1,367.8,187.7c108.9,75.7,196.8,169.5,263.4,281.5
	c66.6,112,99.9,251.8,99.9,419.3c0,167.5-30.8,314.9-92.4,442c-61.5,127.1-147.3,233.1-257.3,317.9c-110,84.7-240.7,148.9-392,192.2
	c-151.4,43.4-315.8,65.1-493.4,65.1c-161.5,0-318.4-27.3-470.8-81.7c-152.4-54.5-288.1-132.2-407.2-233.1
	c-119.1-100.9-215.4-224-289.1-369.3s-112.5-307.7-116.6-487.4H278.1z"/>
</svg>
